<mxfile host="app.diagrams.net" modified="2024-05-30T12:53:25.835Z" agent="Mozilla/5.0 (Windows NT 10.0; Win64; x64) AppleWebKit/537.36 (KHTML, like Gecko) Chrome/125.0.0.0 Safari/537.36" etag="YGTsOJH6-Kbjc0j19uWA" version="24.4.10" type="device">
  <diagram name="第 1 页" id="5pzmDrcbu-tLoyPLwabP">
    <mxGraphModel dx="724" dy="459" grid="1" gridSize="10" guides="1" tooltips="1" connect="1" arrows="1" fold="1" page="1" pageScale="1" pageWidth="827" pageHeight="1169" math="0" shadow="0">
      <root>
        <mxCell id="0" />
        <mxCell id="1" parent="0" />
        <mxCell id="8jkOHevsClOW6XYk-KUT-5" value="" style="rounded=0;whiteSpace=wrap;html=1;strokeColor=default;align=center;verticalAlign=middle;fontFamily=Helvetica;fontSize=12;fontColor=default;fillColor=default;" vertex="1" parent="1">
          <mxGeometry x="140" y="360" width="450" height="260" as="geometry" />
        </mxCell>
        <mxCell id="8jkOHevsClOW6XYk-KUT-2" value="File List" style="text;html=1;align=center;verticalAlign=middle;whiteSpace=wrap;rounded=0;fontSize=20;" vertex="1" parent="1">
          <mxGeometry x="140" y="380" width="177.5" height="30" as="geometry" />
        </mxCell>
        <mxCell id="8jkOHevsClOW6XYk-KUT-1" value="" style="rounded=0;whiteSpace=wrap;html=1;strokeColor=default;align=center;verticalAlign=middle;fontFamily=Helvetica;fontSize=12;fontColor=default;fillColor=default;" vertex="1" parent="1">
          <mxGeometry x="140" y="40" width="450" height="260" as="geometry" />
        </mxCell>
        <mxCell id="8jkOHevsClOW6XYk-KUT-3" value="Access Token" style="rounded=0;whiteSpace=wrap;html=1;strokeColor=default;align=center;verticalAlign=middle;fontFamily=Helvetica;fontSize=12;fontColor=default;fillColor=default;" vertex="1" parent="1">
          <mxGeometry x="290" y="150" width="150" height="20" as="geometry" />
        </mxCell>
        <mxCell id="8jkOHevsClOW6XYk-KUT-4" value="Verify" style="rounded=0;whiteSpace=wrap;html=1;strokeColor=default;align=center;verticalAlign=middle;fontFamily=Helvetica;fontSize=12;fontColor=default;fillColor=default;" vertex="1" parent="1">
          <mxGeometry x="335" y="200" width="60" height="20" as="geometry" />
        </mxCell>
        <mxCell id="8jkOHevsClOW6XYk-KUT-6" value="My Config Center" style="text;html=1;align=center;verticalAlign=middle;whiteSpace=wrap;rounded=0;fontSize=20;" vertex="1" parent="1">
          <mxGeometry x="286.25" y="90" width="177.5" height="30" as="geometry" />
        </mxCell>
        <mxCell id="8jkOHevsClOW6XYk-KUT-9" value="" style="endArrow=none;html=1;rounded=0;exitX=0.044;exitY=0.231;exitDx=0;exitDy=0;exitPerimeter=0;entryX=0.911;entryY=0.231;entryDx=0;entryDy=0;entryPerimeter=0;" edge="1" parent="1">
          <mxGeometry width="50" height="50" relative="1" as="geometry">
            <mxPoint x="169.99999999999994" y="455.06000000000006" as="sourcePoint" />
            <mxPoint x="549.95" y="455.06000000000006" as="targetPoint" />
          </mxGeometry>
        </mxCell>
        <mxCell id="8jkOHevsClOW6XYk-KUT-10" value="&lt;font style=&quot;font-size: 8px;&quot;&gt;production.pem&lt;span style=&quot;white-space: pre;&quot;&gt;&#x9;&lt;/span&gt;&amp;nbsp; &amp;nbsp;18:32:03, Feb 22, 2024&lt;span style=&quot;white-space: pre;&quot;&gt;&#x9;&lt;span style=&quot;white-space: pre;&quot;&gt;&#x9;&lt;/span&gt;This file is ...&lt;span style=&quot;white-space: pre;&quot;&gt;&#x9;&lt;/span&gt;&lt;span style=&quot;white-space: pre;&quot;&gt;&#x9;&lt;/span&gt;Key ×  Hezhuo × , +&lt;span style=&quot;white-space: pre;&quot;&gt;&#x9;&lt;/span&gt;&lt;span style=&quot;white-space: pre;&quot;&gt;&#x9;&lt;/span&gt;RM&lt;/span&gt;&lt;/font&gt;" style="text;html=1;align=left;verticalAlign=middle;whiteSpace=wrap;rounded=0;fontSize=20;" vertex="1" parent="1">
          <mxGeometry x="160" y="460" width="420" height="30" as="geometry" />
        </mxCell>
        <mxCell id="8jkOHevsClOW6XYk-KUT-11" value="&lt;span style=&quot;font-size: 12px;&quot;&gt;Name&lt;span style=&quot;white-space: pre;&quot;&gt;&#x9;&lt;/span&gt;&lt;span style=&quot;white-space: pre;&quot;&gt;&#x9;&lt;/span&gt;Upload Time&lt;span style=&quot;white-space: pre;&quot;&gt;&#x9;&lt;/span&gt;&lt;span style=&quot;white-space: pre;&quot;&gt;&#x9;&lt;/span&gt;Notes&lt;span style=&quot;white-space: pre;&quot;&gt;&#x9;&lt;/span&gt;&lt;span style=&quot;white-space: pre;&quot;&gt;&#x9;&lt;/span&gt;Tags&lt;span style=&quot;white-space: pre;&quot;&gt;&#x9;&lt;/span&gt;&lt;span style=&quot;white-space: pre;&quot;&gt;&#x9;&lt;/span&gt;OP&lt;/span&gt;" style="text;html=1;align=left;verticalAlign=middle;whiteSpace=wrap;rounded=0;fontSize=20;" vertex="1" parent="1">
          <mxGeometry x="170" y="418" width="460" height="30" as="geometry" />
        </mxCell>
        <mxCell id="8jkOHevsClOW6XYk-KUT-13" value="" style="rounded=0;whiteSpace=wrap;html=1;" vertex="1" parent="1">
          <mxGeometry x="299" y="387.5" width="81" height="15" as="geometry" />
        </mxCell>
        <mxCell id="8jkOHevsClOW6XYk-KUT-14" value="" style="rounded=0;whiteSpace=wrap;html=1;" vertex="1" parent="1">
          <mxGeometry x="395" y="387.5" width="115" height="15" as="geometry" />
        </mxCell>
        <mxCell id="8jkOHevsClOW6XYk-KUT-15" value="&lt;font style=&quot;font-size: 10px;&quot;&gt;Filter By:&lt;/font&gt;" style="text;html=1;align=center;verticalAlign=middle;whiteSpace=wrap;rounded=0;" vertex="1" parent="1">
          <mxGeometry x="299" y="360" width="60" height="30" as="geometry" />
        </mxCell>
        <mxCell id="8jkOHevsClOW6XYk-KUT-17" value="&lt;font style=&quot;font-size: 10px;&quot;&gt;Search&lt;/font&gt;" style="rounded=1;whiteSpace=wrap;html=1;" vertex="1" parent="1">
          <mxGeometry x="520" y="387.5" width="40" height="15" as="geometry" />
        </mxCell>
      </root>
    </mxGraphModel>
  </diagram>
</mxfile>
